<svg width="718.63" height="180.39" version="1.1" viewBox="0 0 718.63 180.39" xmlns="http://www.w3.org/2000/svg">
 <defs>
  <clipPath id="clipPath2">
   <path transform="translate(-336.54 -79.41)" d="M 0,135.294 H 538.971 V 0 H 0 Z"/>
  </clipPath>
  <clipPath id="clipPath4">
   <path transform="translate(-355.78 -79.891)" d="M 0,135.294 H 538.971 V 0 H 0 Z"/>
  </clipPath>
  <clipPath id="clipPath6">
   <path transform="translate(-368 -81.609)" d="M 0,135.294 H 538.971 V 0 H 0 Z"/>
  </clipPath>
  <clipPath id="clipPath8">
   <path transform="translate(-394.06 -87.638)" d="M 0,135.294 H 538.971 V 0 H 0 Z"/>
  </clipPath>
  <clipPath id="clipPath10">
   <path transform="translate(-403.22 -85.037)" d="M 0,135.294 H 538.971 V 0 H 0 Z"/>
  </clipPath>
  <clipPath id="clipPath12">
   <path transform="translate(-408.6 -87.675)" d="M 0,135.294 H 538.971 V 0 H 0 Z"/>
  </clipPath>
  <clipPath id="clipPath14">
   <path transform="translate(-150.17 -86.661)" d="M 0,135.294 H 538.971 V 0 H 0 Z"/>
  </clipPath>
  <clipPath id="clipPath16">
   <path transform="translate(-169.32 -81.609)" d="M 0,135.294 H 538.971 V 0 H 0 Z"/>
  </clipPath>
  <clipPath id="clipPath18">
   <path transform="translate(-184.1 -81.609)" d="M 0,135.294 H 538.971 V 0 H 0 Z"/>
  </clipPath>
  <clipPath id="clipPath20">
   <path transform="translate(-198.87 -81.609)" d="M 0,135.294 H 538.971 V 0 H 0 Z"/>
  </clipPath>
  <clipPath id="clipPath22">
   <path transform="translate(-227.4 -82.712)" d="M 0,135.294 H 538.971 V 0 H 0 Z"/>
  </clipPath>
  <clipPath id="clipPath24">
   <path d="M 0,135.294 H 538.971 V 0 H 0 Z"/>
  </clipPath>
  <clipPath id="clipPath26">
   <path transform="translate(-264.84 -82.712)" d="M 0,135.294 H 538.971 V 0 H 0 Z"/>
  </clipPath>
  <clipPath id="clipPath28">
   <path transform="translate(-282.17 -95.849)" d="M 0,135.294 H 538.971 V 0 H 0 Z"/>
  </clipPath>
  <clipPath id="clipPath30">
   <path transform="translate(-294.8 -79.891)" d="M 0,135.294 H 538.971 V 0 H 0 Z"/>
  </clipPath>
  <clipPath id="clipPath32">
   <path d="M 0,135.294 H 538.971 V 0 H 0 Z"/>
  </clipPath>
  <clipPath id="clipPath34">
   <path transform="translate(-319.24 -79.891)" d="M 0,135.294 H 538.971 V 0 H 0 Z"/>
  </clipPath>
  <clipPath id="clipPath36">
   <path transform="translate(-166.39 -41.903)" d="M 0,135.294 H 538.971 V 0 H 0 Z"/>
  </clipPath>
  <clipPath id="clipPath38">
   <path transform="translate(-180.35 -40.17)" d="M 0,135.294 H 538.971 V 0 H 0 Z"/>
  </clipPath>
  <clipPath id="clipPath40">
   <path transform="translate(-222.76 -48.345)" d="M 0,135.294 H 538.971 V 0 H 0 Z"/>
  </clipPath>
  <clipPath id="clipPath42">
   <path transform="translate(-233.17 -53.754)" d="M 0,135.294 H 538.971 V 0 H 0 Z"/>
  </clipPath>
  <clipPath id="clipPath44">
   <path transform="translate(-258.52 -47.85)" d="M 0,135.294 H 538.971 V 0 H 0 Z"/>
  </clipPath>
  <clipPath id="clipPath46">
   <path transform="translate(-285.98 -40.17)" d="M 0,135.294 H 538.971 V 0 H 0 Z"/>
  </clipPath>
  <clipPath id="clipPath48">
   <path transform="translate(-317.7 -40.17)" d="M 0,135.294 H 538.971 V 0 H 0 Z"/>
  </clipPath>
  <clipPath id="clipPath50">
   <path transform="translate(-355.11 -37.445)" d="M 0,135.294 H 538.971 V 0 H 0 Z"/>
  </clipPath>
  <clipPath id="clipPath52">
   <path transform="translate(-390.58 -41.903)" d="M 0,135.294 H 538.971 V 0 H 0 Z"/>
  </clipPath>
  <clipPath id="clipPath54">
   <path transform="translate(-405.4 -47.85)" d="M 0,135.294 H 538.971 V 0 H 0 Z"/>
  </clipPath>
  <clipPath id="clipPath56">
   <path transform="translate(-444.3 -42.895)" d="M 0,135.294 H 538.971 V 0 H 0 Z"/>
  </clipPath>
  <clipPath id="clipPath58">
   <path d="M 0,135.294 H 538.971 V 0 H 0 Z"/>
  </clipPath>
  <clipPath id="clipPath60">
   <path transform="translate(-501.62 -42.069)" d="M 0,135.294 H 538.971 V 0 H 0 Z"/>
  </clipPath>
  <clipPath id="clipPath62">
   <path transform="translate(-520.45 -61.847)" d="M 0,135.294 H 538.971 V 0 H 0 Z"/>
  </clipPath>
  <clipPath id="clipPath64">
   <path transform="translate(-41.67 -97.983)" d="M 0,135.294 H 538.971 V 0 H 0 Z"/>
  </clipPath>
  <clipPath id="clipPath66">
   <path transform="translate(-53.715 -32.336)" d="M 0,135.294 H 538.971 V 0 H 0 Z"/>
  </clipPath>
  <clipPath id="clipPath68">
   <path transform="translate(-73.466 -121.77)" d="M 0,135.294 H 538.971 V 0 H 0 Z"/>
  </clipPath>
  <clipPath id="clipPath70">
   <path transform="translate(-33.326 -77.644)" d="M 0,135.294 H 538.971 V 0 H 0 Z"/>
  </clipPath>
  <clipPath id="clipPath72">
   <path transform="translate(-40.22 -76.824)" d="M 0,135.294 H 538.971 V 0 H 0 Z"/>
  </clipPath>
 </defs>
 <g>
  <g fill="#192b49">
   <path transform="matrix(1.3333 0 0 -1.3333 448.72 74.513)" d="m0 0c-1.432 0-2.603 0.243-3.516 0.737-0.916 0.494-1.638 1.112-2.176 1.867-0.538 0.75-0.91 1.573-1.116 2.455-0.203 0.89-0.307 1.727-0.307 2.515v11.926h1.932v-11.714c0-0.77 0.089-1.516 0.268-2.243 0.18-0.723 0.472-1.366 0.873-1.932 0.403-0.562 0.936-1.019 1.6-1.37 0.662-0.348 1.475-0.521 2.442-0.521 0.972 0 1.782 0.173 2.446 0.521 0.662 0.351 1.196 0.808 1.599 1.37 0.405 0.566 0.697 1.209 0.876 1.932 0.177 0.727 0.266 1.473 0.266 2.243v11.714h1.933v-11.926c0-0.788-0.104-1.625-0.308-2.515-0.206-0.882-0.578-1.705-1.114-2.455-0.538-0.755-1.268-1.373-2.191-1.867-0.921-0.494-2.09-0.737-3.507-0.737" clip-path="url(#clipPath2)"/>
   <path transform="matrix(1.3333 0 0 -1.3333 474.37 73.871)" d="m0 0h-1.931v17.299h-6.367v1.718h14.663v-1.718h-6.365z" clip-path="url(#clipPath4)"/>
   <path transform="matrix(1.3333 0 0 -1.3333 490.66 71.58)" d="m0 0h10.182v-1.72h-12.113v19.021h11.789v-1.718h-9.858v-6.53h9.214v-1.718h-9.214z" clip-path="url(#clipPath6)"/>
  </g>
  <g fill="#4a8bd1">
   <path transform="matrix(1.3333 0 0 -1.3333 525.41 63.541)" d="m0 0h-2.07l-1.352-7.748h-1.262l1.354 7.748h-1.861l0.208 1.052h1.822l0.416 2.391c0.071 0.438 0.192 0.856 0.352 1.252 0.166 0.39 0.383 0.735 0.651 1.032 0.272 0.293 0.595 0.531 0.969 0.706 0.379 0.175 0.817 0.26 1.316 0.26 0.161 0 0.334-7e-3 0.509-0.027 0.175-0.018 0.35-0.053 0.527-0.104l-0.302-1.109c-0.263 0.075-0.557 0.113-0.883 0.113-0.301 0-0.562-0.056-0.781-0.169-0.22-0.112-0.399-0.272-0.547-0.48-0.146-0.204-0.261-0.447-0.354-0.722-0.095-0.277-0.169-0.571-0.219-0.887l-0.393-2.256h2.106z" clip-path="url(#clipPath8)"/>
   <path transform="matrix(1.3333 0 0 -1.3333 537.62 67.009)" d="m0 0c0 0.401-0.06 0.777-0.188 1.12-0.126 0.346-0.308 0.644-0.552 0.897-0.245 0.25-0.539 0.449-0.891 0.593-0.35 0.146-0.745 0.219-1.181 0.219-0.549 0-1.058-0.119-1.518-0.35-0.463-0.234-0.863-0.548-1.198-0.942-0.341-0.397-0.606-0.855-0.801-1.378-0.195-0.52-0.29-1.069-0.29-1.647 0-0.405 0.066-0.781 0.188-1.124 0.124-0.348 0.307-0.644 0.551-0.895 0.248-0.252 0.54-0.449 0.883-0.593 0.344-0.146 0.735-0.217 1.174-0.217 0.562 0 1.074 0.119 1.547 0.347 0.465 0.233 0.868 0.543 1.205 0.931 0.341 0.391 0.6 0.845 0.788 1.37 0.188 0.52 0.283 1.076 0.283 1.669m-3.908-5.369c-0.59 0-1.137 0.094-1.64 0.282-0.502 0.188-0.929 0.444-1.286 0.779-0.361 0.33-0.638 0.731-0.837 1.204-0.199 0.47-0.301 0.985-0.301 1.552 0 0.739 0.126 1.435 0.385 2.092 0.257 0.656 0.616 1.238 1.081 1.734 0.464 0.493 1.016 0.883 1.656 1.173 0.639 0.29 1.339 0.434 2.105 0.434 0.604 0 1.147-0.091 1.647-0.272 0.494-0.182 0.919-0.445 1.277-0.78 0.357-0.339 0.634-0.743 0.837-1.204 0.199-0.463 0.299-0.981 0.299-1.543 0-0.753-0.128-1.461-0.385-2.121-0.255-0.668-0.615-1.244-1.08-1.736-0.463-0.487-1.015-0.876-1.656-1.162-0.638-0.288-1.34-0.432-2.102-0.432" clip-path="url(#clipPath10)"/>
   <path transform="matrix(1.3333 0 0 -1.3333 544.81 63.491)" d="m0 0c0.055 0.378 0.097 0.713 0.122 1.014h1.204c-0.027-0.237-0.057-0.5-0.095-0.788-0.04-0.29-0.075-0.527-0.113-0.717h0.038c0.325 0.517 0.741 0.934 1.241 1.255 0.501 0.318 1.068 0.478 1.694 0.478 0.162 0 0.304-9e-3 0.432-0.02 0.126-0.011 0.257-0.038 0.392-0.075l-0.297-1.204c-0.066 0.026-0.181 0.05-0.348 0.077-0.172 0.024-0.343 0.037-0.52 0.037-0.338 0-0.67-0.064-0.994-0.188-0.328-0.126-0.628-0.323-0.894-0.595-0.272-0.266-0.509-0.611-0.715-1.034-0.208-0.418-0.361-0.923-0.463-1.514l-0.788-4.51h-1.26l1.203 6.863c0.053 0.237 0.104 0.545 0.161 0.921" clip-path="url(#clipPath12)"/>
  </g>
  <g fill="#192b49">
   <path transform="matrix(1.3333 0 0 -1.3333 200.22 64.845)" d="m0 0h8.379l-4.188 10.102zm-2.792-6.77h-2.123l8.218 19.021h1.88l8.167-19.021h-2.15l-2.094 4.997h-9.828z" clip-path="url(#clipPath14)"/>
   <path transform="matrix(1.3333 0 0 -1.3333 225.76 71.58)" d="m0 0h8.869v-1.72h-10.8v19.021h1.931z" clip-path="url(#clipPath16)"/>
   <path transform="matrix(1.3333 0 0 -1.3333 245.46 71.58)" d="m0 0h8.866v-1.72h-10.799v19.021h1.933z" clip-path="url(#clipPath18)"/>
   <path transform="matrix(1.3333 0 0 -1.3333 265.16 71.58)" d="m0 0h10.181v-1.72h-12.114v19.021h11.791v-1.718h-9.858v-6.53h9.214v-1.718h-9.214z" clip-path="url(#clipPath20)"/>
   <path transform="matrix(1.3333 0 0 -1.3333 303.2 70.109)" d="m0 0h0.053v16.199h1.935v-19.02h-2.42l-11.064 16.356h-0.056v-16.356h-1.933v19.02h2.416z" clip-path="url(#clipPath22)"/>
   <path transform="matrix(1.3333 0 0 -1.3333 0 180.39)" d="m245.24 79.893h-1.933v19.017h1.933z" clip-path="url(#clipPath24)"/>
   <path transform="matrix(1.3333 0 0 -1.3333 353.12 70.109)" d="m0 0h0.055v16.199h1.933v-19.02h-2.415l-11.069 16.356h-0.053v-16.356h-1.936v19.02h2.422z" clip-path="url(#clipPath26)"/>
   <path transform="matrix(1.3333 0 0 -1.3333 376.23 52.594)" d="m0 0c-0.416 0.574-0.939 1.034-1.587 1.381-0.642 0.352-1.422 0.525-2.334 0.525-0.469 0-0.943-0.071-1.427-0.212-0.479-0.144-0.921-0.363-1.315-0.66-0.393-0.297-0.713-0.667-0.953-1.116-0.243-0.447-0.365-0.978-0.365-1.583 0-0.611 0.118-1.111 0.35-1.507 0.23-0.39 0.538-0.731 0.927-1.006 0.383-0.279 0.82-0.506 1.309-0.686 0.493-0.175 1.005-0.359 1.541-0.536 0.662-0.214 1.326-0.451 1.996-0.699 0.671-0.252 1.273-0.576 1.811-0.983 0.532-0.401 0.972-0.91 1.309-1.528 0.341-0.62 0.511-1.405 0.511-2.349 0-0.951-0.183-1.771-0.544-2.457-0.361-0.691-0.831-1.26-1.41-1.707-0.578-0.451-1.24-0.779-1.984-0.996-0.74-0.212-1.49-0.321-2.24-0.321-0.574 0-1.147 0.056-1.721 0.175-0.575 0.117-1.12 0.29-1.64 0.522-0.518 0.233-1.003 0.529-1.45 0.888-0.445 0.355-0.841 0.768-1.182 1.236l1.667 1.235c0.409-0.68 0.989-1.249 1.731-1.705 0.742-0.458 1.616-0.686 2.623-0.686 0.478 0 0.976 0.073 1.477 0.228 0.502 0.153 0.952 0.381 1.353 0.697 0.403 0.315 0.735 0.7 0.998 1.158 0.257 0.456 0.388 0.987 0.388 1.598 0 0.662-0.131 1.214-0.388 1.65-0.263 0.44-0.607 0.808-1.038 1.104-0.428 0.293-0.921 0.539-1.473 0.738-0.56 0.197-1.138 0.396-1.749 0.591-0.628 0.193-1.244 0.418-1.854 0.67-0.609 0.253-1.156 0.576-1.639 0.983-0.482 0.403-0.874 0.897-1.167 1.486-0.296 0.595-0.444 1.319-0.444 2.179 0 0.911 0.181 1.702 0.548 2.364 0.37 0.664 0.846 1.206 1.439 1.636 0.594 0.432 1.247 0.748 1.96 0.941 0.719 0.197 1.428 0.294 2.123 0.294 1.288 0 2.391-0.226 3.305-0.682 0.914-0.458 1.601-0.998 2.066-1.625z" clip-path="url(#clipPath28)"/>
   <path transform="matrix(1.3333 0 0 -1.3333 393.06 73.871)" d="m0 0h-1.931v17.299h-6.367v1.718h14.663v-1.718h-6.365z" clip-path="url(#clipPath30)"/>
   <path transform="matrix(1.3333 0 0 -1.3333 0 180.39)" d="m307.02 79.893h-1.935v19.017h1.935z" clip-path="url(#clipPath32)"/>
   <path transform="matrix(1.3333 0 0 -1.3333 425.66 73.871)" d="m0 0h-1.933v17.299h-6.365v1.718h14.665v-1.718h-6.367z" clip-path="url(#clipPath34)"/>
  </g>
  <g fill="#4a8bd1">
   <g>
    <path transform="matrix(1.3333 0 0 -1.3333 221.86 124.52)" d="m0 0h0.083v24.774h2.973v-29.233h-3.717l-17.424 25.021h-0.082v-25.021h-2.974v29.233h3.717z" clip-path="url(#clipPath36)"/>
    <path transform="matrix(1.3333 0 0 -1.3333 240.47 126.83)" d="m0 0h15.649v-2.726h-18.622v29.234h18.126v-2.725h-15.153v-9.951h14.162v-2.726h-14.162z" clip-path="url(#clipPath38)"/>
    <path transform="matrix(1.3333 0 0 -1.3333 297.01 115.93)" d="m0 0c0-4.872-1.941-11.644-10.694-11.644-8.754 0-10.695 6.772-10.695 11.644v18.333h2.973v-18.002c0-8.424 5.492-9.25 7.722-9.25 2.229 0 7.721 0.826 7.721 9.25v18.002h2.973z" clip-path="url(#clipPath40)"/>
    <path transform="matrix(1.3333 0 0 -1.3333 310.89 108.72)" d="m0 0h5.285c5.327 0 7.144 2.313 7.144 5.12 0 2.808-1.817 5.079-7.144 5.079h-5.285zm0-16.31h-2.973v29.234h9.002c5.946 0 9.62-2.56 9.62-7.804 0-4.047-2.683-7.143-7.473-7.556l8.423-13.874h-3.633l-8.011 13.585h-4.955z" clip-path="url(#clipPath42)"/>
    <path transform="matrix(1.3333 0 0 -1.3333 344.69 116.59)" d="m0 0h12.677l-6.319 15.359zm-4.335-10.405h-3.469l12.718 29.233h2.89l12.717-29.233h-3.468l-3.221 7.679h-14.946z" clip-path="url(#clipPath44)"/>
    <path transform="matrix(1.3333 0 0 -1.3333 381.31 126.83)" d="m0 0h13.626v-2.726h-16.599v29.234h2.973z" clip-path="url(#clipPath46)"/>
    <path transform="matrix(1.3333 0 0 -1.3333 423.59 126.83)" d="m0 0h5.781c8.919 0 13.089 5.863 13.089 11.892 0 6.028-4.17 11.891-13.089 11.891h-5.781zm-2.973 26.508h9.703c7.309 0 15.361-4.872 15.361-14.616 0-9.746-8.052-14.618-15.361-14.618h-9.703z" clip-path="url(#clipPath48)"/>
    <path transform="matrix(1.3333 0 0 -1.3333 473.48 130.47)" d="m0 0h-2.973v12.594l-10.942 16.639h3.716l8.713-13.791 8.712 13.791h3.715l-10.941-16.639z" clip-path="url(#clipPath50)"/>
    <path transform="matrix(1.3333 0 0 -1.3333 520.77 124.52)" d="m0 0h0.083v24.774h2.973v-29.233h-3.716l-17.425 25.021h-0.083v-25.021h-2.973v29.233h3.716z" clip-path="url(#clipPath52)"/>
    <path transform="matrix(1.3333 0 0 -1.3333 540.54 116.59)" d="m0 0h12.676l-6.318 15.359zm-4.335-10.405h-3.469l12.718 29.233h2.89l12.717-29.233h-3.468l-3.221 7.679h-14.946z" clip-path="url(#clipPath54)"/>
    <path transform="matrix(1.3333 0 0 -1.3333 592.4 123.2)" d="m0 0 9.868 23.783h4.542v-29.233h-2.972v25.269h-0.084l-10.57-25.269h-1.568l-10.57 25.269h-0.084v-25.269h-2.972v29.233h4.542z" clip-path="url(#clipPath56)"/>
    <path transform="matrix(1.3333 0 0 -1.3333 0 180.39)" d="m469.62 37.445h-2.973v29.233h2.973z" clip-path="url(#clipPath58)"/>
    <path transform="matrix(1.3333 0 0 -1.3333 668.82 124.3)" d="m0 0c-1.94-3.014-5.987-5.367-10.818-5.367-8.712 0-15.236 6.482-15.236 15.36 0 8.877 6.524 15.36 15.236 15.36 3.633 0 7.556-1.363 10.116-4.624l-2.602-1.942c-1.155 1.9-4.418 3.841-7.514 3.841-7.515 0-12.016-5.905-12.016-12.635s4.501-12.636 12.016-12.636c3.055 0 6.193 0.992 8.381 4.377z" clip-path="url(#clipPath60)"/>
    <path transform="matrix(1.3333 0 0 -1.3333 693.93 97.929)" d="m0 0c-1.28 1.899-3.179 2.85-5.656 2.85-3.056 0-6.236-1.611-6.236-5.286 0-7.886 14.989-3.716 14.989-14.245 0-5.327-4.996-8.465-9.62-8.465-3.551 0-6.979 1.281-9.208 4.335l2.683 1.942c1.239-2.148 3.593-3.552 6.649-3.552 2.931 0 6.275 1.9 6.275 5.327 0 8.258-14.988 3.675-14.988 14.369 0 5.657 4.707 8.299 9.456 8.299 3.302 0 5.945-0.908 8.258-3.551z" clip-path="url(#clipPath62)"/>
   </g>
   <g fill-rule="evenodd">
    <path transform="matrix(1.3333 0 0 -1.3333 55.56 49.748)" d="m0 0c13.672-0.866 24.091-12.693 23.227-26.366-0.703-11.103-10.337-19.574-21.412-18.862-4.676 0.296-8.766 2.539-11.558 5.877 3.216-11.168 13.256-22.044 28.043-24.961 6.123 1.787 11.832 4.908 16.761 9.249 8.836 7.784 14.113 18.544 14.857 30.296 1.255 19.831-8.127 37.915-23.218 48.692-20.95-0.412-38.982-12.716-47.607-30.452 5.726 4.511 13.066 7.019 20.907 6.527" clip-path="url(#clipPath64)"/>
    <path transform="matrix(1.3333 0 0 -1.3333 71.62 137.28)" d="m0 0c-14.734 5.447-27.601 20.116-25.765 36.617-6.831-7.909-7.419-16.851-6.798-25.525 0.01-0.021 0.021-0.042 0.032-0.062 5.899-6.475 14.207-10.768 23.618-11.364 3.01-0.188 5.992-0.07 8.913 0.334" clip-path="url(#clipPath66)"/>
    <path transform="matrix(1.3333 0 0 -1.3333 97.955 18.03)" d="m0 0c13.924-11.546 22.349-29.352 21.121-48.744-1.29-20.381-15.436-36.941-34.024-42.29-0.056-0.023-0.115-0.032-0.174-0.048-4.076-1.155-8.36-1.782-12.771-1.783-0.997 0-1.996 0.031-3.006 0.096-6.707 0.425-12.897 2.583-18.175 5.999 9.888-12.938 25.472-21.292 43.013-21.292 29.886 0 54.113 24.227 54.113 54.113 0 28.534-22.089 51.892-50.097 53.949" clip-path="url(#clipPath68)"/>
    <path transform="matrix(1.3333 0 0 -1.3333 44.435 76.867)" d="m0 0c8e-3 5e-3 0.016 8e-3 0.024 0.013 1.949 1.366 4.315 2.174 6.87 2.174 6.621 0 12.008-5.387 12.008-12.008 0-5.999-4.426-10.97-10.181-11.854 0.533-0.1 1.073-0.179 1.628-0.214 9.469-0.581 17.622 6.604 18.221 16.053 0.76 12.017-8.399 22.414-20.416 23.175-9.451 0.599-18.106-3.646-23.548-10.59-1.679-5.224-2.595-10.789-2.595-16.57 0-5.896 0.956-11.565 2.699-16.878 0.501 9.231 3.774 18.83 15.29 26.699" clip-path="url(#clipPath70)"/>
   </g>
  </g>
  <path transform="matrix(1.3333 0 0 -1.3333 53.627 77.96)" d="m0 0c-4.964 0-9.002-4.038-9.002-9.002s4.038-9.001 9.002-9.001 9.001 4.037 9.001 9.001-4.037 9.002-9.001 9.002" clip-path="url(#clipPath72)" fill="#192b49"/>
 </g>
</svg>
